<svg id="visual" viewBox="0 0 900 600" width="900" height="600" xmlns="http://www.w3.org/2000/svg" xmlns:xlink="http://www.w3.org/1999/xlink" version="1.1"><rect x="0" y="0" width="900" height="600" fill="#2F4F4F"></rect><path d="M605 600L613.5 590.8C622 581.7 639 563.3 630.8 545.2C622.7 527 589.3 509 587 490.8C584.7 472.7 613.3 454.3 621.8 436.2C630.3 418 618.7 400 603.2 381.8C587.7 363.7 568.3 345.3 569.2 327.2C570 309 591 291 597 272.8C603 254.7 594 236.3 599.8 218.2C605.7 200 626.3 182 625.8 163.8C625.3 145.7 603.7 127.3 598.8 109.2C594 91 606 73 607 54.8C608 36.7 598 18.3 593 9.2L588 0L900 0L900 9.2C900 18.3 900 36.7 900 54.8C900 73 900 91 900 109.2C900 127.3 900 145.7 900 163.8C900 182 900 200 900 218.2C900 236.3 900 254.7 900 272.8C900 291 900 309 900 327.2C900 345.3 900 363.7 900 381.8C900 400 900 418 900 436.2C900 454.3 900 472.7 900 490.8C900 509 900 527 900 545.2C900 563.3 900 581.7 900 590.8L900 600Z" fill="#8fbc8f"></path><path d="M690 600L692 590.8C694 581.7 698 563.3 686.7 545.2C675.3 527 648.7 509 633.7 490.8C618.7 472.7 615.3 454.3 629.5 436.2C643.7 418 675.3 400 681.5 381.8C687.7 363.7 668.3 345.3 653 327.2C637.7 309 626.3 291 635.5 272.8C644.7 254.7 674.3 236.3 681.7 218.2C689 200 674 182 673 163.8C672 145.7 685 127.3 691.3 109.2C697.7 91 697.3 73 690.7 54.8C684 36.7 671 18.3 664.5 9.2L658 0L900 0L900 9.2C900 18.3 900 36.7 900 54.8C900 73 900 91 900 109.2C900 127.3 900 145.7 900 163.8C900 182 900 200 900 218.2C900 236.3 900 254.7 900 272.8C900 291 900 309 900 327.2C900 345.3 900 363.7 900 381.8C900 400 900 418 900 436.2C900 454.3 900 472.7 900 490.8C900 509 900 527 900 545.2C900 563.3 900 581.7 900 590.8L900 600Z" fill="#abccaa"></path><path d="M721 600L726.8 590.8C732.7 581.7 744.3 563.3 743 545.2C741.7 527 727.3 509 722 490.8C716.7 472.7 720.3 454.3 716 436.2C711.7 418 699.3 400 697 381.8C694.7 363.7 702.3 345.3 703 327.2C703.7 309 697.3 291 693.7 272.8C690 254.7 689 236.3 692.2 218.2C695.3 200 702.7 182 706.3 163.8C710 145.7 710 127.3 718 109.2C726 91 742 73 739 54.8C736 36.7 714 18.3 703 9.2L692 0L900 0L900 9.2C900 18.3 900 36.7 900 54.8C900 73 900 91 900 109.2C900 127.3 900 145.7 900 163.8C900 182 900 200 900 218.2C900 236.3 900 254.7 900 272.8C900 291 900 309 900 327.2C900 345.3 900 363.7 900 381.8C900 400 900 418 900 436.2C900 454.3 900 472.7 900 490.8C900 509 900 527 900 545.2C900 563.3 900 581.7 900 590.8L900 600Z" fill="#c7ddc6"></path><path d="M747 600L748.7 590.8C750.3 581.7 753.7 563.3 752.5 545.2C751.3 527 745.7 509 749.2 490.8C752.7 472.7 765.3 454.3 768.8 436.2C772.3 418 766.7 400 763.3 381.8C760 363.7 759 345.3 766.7 327.2C774.3 309 790.7 291 789.7 272.8C788.7 254.7 770.3 236.3 765.3 218.2C760.3 200 768.7 182 773.5 163.8C778.3 145.7 779.7 127.3 781.8 109.2C784 91 787 73 786.3 54.8C785.7 36.7 781.3 18.3 779.2 9.2L777 0L900 0L900 9.2C900 18.3 900 36.7 900 54.8C900 73 900 91 900 109.2C900 127.3 900 145.7 900 163.8C900 182 900 200 900 218.2C900 236.3 900 254.7 900 272.8C900 291 900 309 900 327.2C900 345.3 900 363.7 900 381.8C900 400 900 418 900 436.2C900 454.3 900 472.7 900 490.8C900 509 900 527 900 545.2C900 563.3 900 581.7 900 590.8L900 600Z" fill="#e3eee2"></path><path d="M819 600L824 590.8C829 581.7 839 563.3 835.8 545.2C832.7 527 816.3 509 808.8 490.8C801.3 472.7 802.7 454.3 807.8 436.2C813 418 822 400 829.8 381.8C837.7 363.7 844.3 345.3 845.7 327.2C847 309 843 291 841.8 272.8C840.7 254.7 842.3 236.3 836.2 218.2C830 200 816 182 812.3 163.8C808.7 145.7 815.3 127.3 817.7 109.2C820 91 818 73 821.7 54.8C825.3 36.7 834.7 18.3 839.3 9.2L844 0L900 0L900 9.2C900 18.3 900 36.7 900 54.8C900 73 900 91 900 109.2C900 127.3 900 145.7 900 163.8C900 182 900 200 900 218.2C900 236.3 900 254.7 900 272.8C900 291 900 309 900 327.2C900 345.3 900 363.7 900 381.8C900 400 900 418 900 436.2C900 454.3 900 472.7 900 490.8C900 509 900 527 900 545.2C900 563.3 900 581.7 900 590.8L900 600Z" fill="#ffffff"></path></svg>